# xmcd
#
# Track frame offsets: 
#        150
#        16181
#        35311
#        53200
#        71399
#        88341
#        106888
#        124752
#        139122
#        156994
#        171697
#
# Disc length: 2563 seconds
#
# Revision: 1
# Processed by: cddbd v1.5.2PL0 Copyright (c) Steve Scherf et al.
# Submitted via: ExactAudioCopyFreeDBPlugin 1.0
#
DISCID=950a010b
DTITLE=Common - Universal Mind Control [Bonus Track]
DYEAR=2008
DGENRE=Rap
TTITLE0=Universal Mind Control (UMC)
TTITLE1=Punch Drunk Love (feat. Kanye West)
TTITLE2=Make My Day (feat. Cee-Lo)
TTITLE3=Sex 4 Suga
TTITLE4=Announcement (feat. Pharrell)
TTITLE5=Gladiator
TTITLE6=Changes (feat. Muhsinah)
TTITLE7=Inhale
TTITLE8=What A World
TTITLE9=Everywhere (feat. Martina Topley-Bird)
TTITLE10=Punch Drunk Love (Booty Shake Mix) (feat. Kanye West)
EXTD=
EXTT0=
EXTT1=
EXTT2=
EXTT3=
EXTT4=
EXTT5=
EXTT6=
EXTT7=
EXTT8=
EXTT9=
EXTT10=
PLAYORDER=
